HIERARCHY
ROOT Hips
{
	OFFSET -1.602300 6.242603 43.997101
	CHANNELS 6 Xposition Yposition Zposition Zrotation Xrotation Yrotation
	JOINT Chest
	{
		OFFSET -0.204900 1.598101 7.917301
		CHANNELS 6 Xposition Yposition Zposition Zrotation Xrotation Yrotation
		JOINT Chest2
		{
			OFFSET 0.000000 0.000000 3.404099
			CHANNELS 6 Xposition Yposition Zposition Zrotation Xrotation Yrotation
			JOINT Neck
			{
				OFFSET 0.000000 0.000000 7.928600
				CHANNELS 6 Xposition Yposition Zposition Zrotation Xrotation Yrotation
				JOINT Head
				{
					OFFSET 0.000000 0.000000 2.173897
					CHANNELS 6 Xposition Yposition Zposition Zrotation Xrotation Yrotation
					End Site
					{
						OFFSET 0.000000 0.000001 10.404503
					}
				}
			}
			JOINT LeftCollar
			{
				OFFSET 2.833800 -1.396299 4.843300
				CHANNELS 6 Xposition Yposition Zposition Zrotation Xrotation Yrotation
				JOINT LeftShoulder
				{
					OFFSET 4.363600 0.000000 0.000000
					CHANNELS 6 Xposition Yposition Zposition Zrotation Xrotation Yrotation
					JOINT LeftElbow
					{
						OFFSET 0.000000 -0.000001 -10.306900
						CHANNELS 6 Xposition Yposition Zposition Zrotation Xrotation Yrotation
						JOINT LeftWrist
						{
							OFFSET 0.000000 -0.000001 -12.404900
							CHANNELS 6 Xposition Yposition Zposition Zrotation Xrotation Yrotation
							End Site
							{
								OFFSET 0.000000 0.000000 -2.173901
							}
						}
					}
				}
			}
			JOINT RightCollar
			{
				OFFSET -2.354800 -1.897200 5.063099
				CHANNELS 6 Xposition Yposition Zposition Zrotation Xrotation Yrotation
				JOINT RightShoulder
				{
					OFFSET -4.375800 0.000000 0.000000
					CHANNELS 6 Xposition Yposition Zposition Zrotation Xrotation Yrotation
					JOINT RightElbow
					{
						OFFSET 0.000000 -0.000001 -10.005001
						CHANNELS 6 Xposition Yposition Zposition Zrotation Xrotation Yrotation
						JOINT RightWrist
						{
							OFFSET 0.000000 -0.000001 -13.174900
							CHANNELS 6 Xposition Yposition Zposition Zrotation Xrotation Yrotation
							End Site
							{
								OFFSET 0.000000 0.000000 -2.173901
							}
						}
					}
				}
			}
		}
	}
	JOINT LeftHip
	{
		OFFSET 2.240600 0.386800 -2.614101
		CHANNELS 6 Xposition Yposition Zposition Zrotation Xrotation Yrotation
		JOINT LeftKnee
		{
			OFFSET 0.000000 -0.000001 -18.592899
			CHANNELS 6 Xposition Yposition Zposition Zrotation Xrotation Yrotation
			JOINT LeftAnkle
			{
				OFFSET 0.000000 -0.000001 -18.765800
				CHANNELS 6 Xposition Yposition Zposition Zrotation Xrotation Yrotation
				End Site
				{
					OFFSET 0.000000 -8.655000 0.000000
				}
			}
		}
	}
	JOINT RightHip
	{
		OFFSET -2.014900 -0.220900 -2.615898
		CHANNELS 6 Xposition Yposition Zposition Zrotation Xrotation Yrotation
		JOINT RightKnee
		{
			OFFSET 0.000000 -0.000001 -18.633900
			CHANNELS 6 Xposition Yposition Zposition Zrotation Xrotation Yrotation
			JOINT RightAnkle
			{
				OFFSET 0.000000 -0.000001 -18.285101
				CHANNELS 6 Xposition Yposition Zposition Zrotation Xrotation Yrotation
				End Site
				{
					OFFSET 0.000000 -7.524500 0.000000
				}
			}
		}
	}
}
MOTION
Frames: 9
Frame Time: 0.041667
-6.313399 27.082605 6.987206 0.652319 -13.088062 5.197105 -0.204901 1.598102 7.917310 0.496726 13.809691 -4.379109 -0.000000 0.000000 3.404105 -9.128829 -12.843191 -2.380127 0.000000 0.000001 7.928600 5.941912 11.250383 -3.618752 -0.000001 -0.000003 2.173898 1.422946 -2.663645 1.067647 2.833806 -1.396299 4.843301 -10.360904 8.521722 23.163156 4.363595 0.000005 -0.000001 -62.735445 1.129558 -71.490668 0.000003 0.000001 -10.306897 176.006202 -165.194846 187.015661 -0.000002 -0.000003 -12.404892 -109.283723 181.471269 -198.669385 -2.354801 -1.897201 5.063105 14.619482 9.239588 -12.206616 -4.375791 0.000002 -0.000006 180.217369 -51.685606 246.319516 -0.000017 -0.000002 -10.005007 34.655202 52.784064 -107.059985 -0.000007 0.000003 -13.174908 142.435590 -193.908852 76.556073 2.240597 0.386803 -2.614103 142.304273 -41.984565 119.671744 0.000001 0.000003 -18.592894 -129.918859 42.400469 135.761184 -0.000000 0.000000 -18.765799 -8.953442 41.191853 -2.033489 -2.014898 -0.220888 -2.615897 -107.423603 -15.694820 -90.537477 0.000000 0.000003 -18.633886 171.230261 25.072851 -178.399528 -0.000010 -0.000001 -18.285084 -26.289958 35.864695 -226.369490
-6.277400 27.060503 6.989803 0.930801 -12.785956 5.328227 -0.204901 1.598103 7.917312 0.222293 13.536021 -4.509031 0.000001 -0.000001 3.404104 -8.782971 -12.722484 -2.325035 0.000001 -0.000000 7.928601 5.718797 11.076535 -3.396488 -0.000000 0.000003 2.173894 1.296137 -2.689090 1.025886 2.833805 -1.396299 4.843305 -10.339796 8.557714 22.554591 4.363594 0.000010 0.000003 -62.579662 0.564824 -71.265313 0.000002 0.000002 -10.306887 176.872461 -163.896140 187.872303 -0.000002 -0.000001 -12.404898 -110.333817 181.919971 -199.163166 -2.354800 -1.897200 5.063105 15.135638 9.248608 -11.531238 -4.375791 0.000003 -0.000010 180.912600 -51.515278 247.374207 -0.000009 -0.000001 -10.004999 35.401612 52.741437 -107.290941 -0.000005 0.000003 -13.174903 143.247590 -193.457486 76.210445 2.240598 0.386807 -2.614103 142.254495 -41.805628 119.550372 0.000000 -0.000001 -18.592890 -130.033401 42.653155 136.119427 0.000001 0.000001 -18.765799 -10.316681 41.383771 -0.633604 -2.014898 -0.220887 -2.615897 -107.886779 -15.601463 -91.103071 0.000001 0.000002 -18.633886 171.524860 25.011072 -178.500218 -0.000009 -0.000001 -18.285084 -25.892124 35.930053 -226.650047
-6.251700 27.042202 7.000313 1.098023 -12.520525 5.454778 -0.204901 1.598100 7.917299 0.063459 13.347752 -4.627269 0.000000 -0.000001 3.404099 -8.455358 -12.685983 -2.286952 -0.000001 0.000001 7.928596 5.514015 10.933665 -3.208316 -0.000001 0.000002 2.173897 1.137529 -2.679560 1.100129 2.833804 -1.396300 4.843302 -10.229421 8.602624 22.289556 4.363593 0.000007 0.000002 -62.429466 0.383640 -71.148359 0.000005 0.000001 -10.306895 178.062089 -162.726457 188.780336 -0.000003 -0.000003 -12.404897 -111.796461 182.323348 -199.433478 -2.354803 -1.897201 5.063102 14.822870 9.180670 -11.198233 -4.375790 0.000005 -0.000008 182.094373 -51.080908 248.001245 -0.000013 -0.000005 -10.005006 36.537322 52.317535 -107.450876 -0.000008 0.000003 -13.174906 143.282820 -192.749345 75.859926 2.240598 0.386805 -2.614105 142.272062 -41.699131 119.342106 0.000000 0.000002 -18.592892 -130.031038 42.819856 136.404082 0.000001 0.000002 -18.765800 -11.455216 41.057285 2.093279 -2.014898 -0.220893 -2.615904 -108.142836 -15.645361 -91.552839 0.000000 0.000005 -18.633884 171.671327 25.003222 -178.599051 -0.000009 -0.000003 -18.285086 -25.504585 35.971820 -226.926096
-6.230699 27.021002 7.013805 1.233851 -12.247489 5.527433 -0.204900 1.598101 7.917303 -0.076176 13.153032 -4.704379 -0.000000 -0.000000 3.404102 -8.120866 -12.473414 -2.232711 -0.000000 -0.000001 7.928598 5.325395 10.623501 -2.994172 0.000000 0.000000 2.173900 1.131131 -2.641155 1.132372 2.833803 -1.396300 4.843305 -10.012572 8.511225 21.877456 4.363599 0.000007 -0.000002 -62.443570 0.342463 -71.111319 -0.000000 0.000003 -10.306899 179.103966 -161.576212 189.860244 -0.000001 -0.000003 -12.404889 -112.713237 182.797541 -199.739607 -2.354801 -1.897201 5.063101 14.502385 8.929446 -10.883590 -4.375790 0.000005 -0.000007 183.330064 -50.267026 248.555502 -0.000008 -0.000006 -10.005002 38.042955 52.037302 -107.531841 -0.000007 0.000004 -13.174902 143.457441 -192.317418 75.717886 2.240599 0.386803 -2.614105 142.243757 -41.551463 119.021510 0.000001 0.000003 -18.592890 -129.854368 42.907986 136.473559 0.000000 0.000002 -18.765797 -11.498001 41.344658 1.742825 -2.014896 -0.220896 -2.615901 -108.282472 -16.032295 -91.929428 0.000000 0.000002 -18.633883 171.528275 25.055034 -178.695261 -0.000008 -0.000000 -18.285084 -25.120500 35.986634 -227.203948
-6.214300 26.998804 7.030514 1.434812 -11.973190 5.658226 -0.204900 1.598102 7.917307 -0.272603 12.979880 -4.792142 0.000000 0.000001 3.404103 -7.989252 -12.407939 -2.233172 -0.000000 -0.000001 7.928601 5.315252 10.380818 -2.843843 -0.000001 -0.000001 2.173895 1.116776 -2.584916 1.158635 2.833806 -1.396301 4.843303 -9.290085 8.675188 21.252284 4.363599 0.000011 -0.000004 -62.602877 -0.166203 -70.896653 0.000003 0.000001 -10.306900 179.870450 -160.498230 190.773795 -0.000003 -0.000003 -12.404899 -113.777168 183.070872 -199.782227 -2.354800 -1.897203 5.063103 14.401131 8.856008 -10.236469 -4.375791 0.000004 -0.000001 184.816409 -49.156489 249.513750 -0.000012 -0.000008 -10.005009 39.895374 51.923549 -107.743953 -0.000005 0.000006 -13.174911 143.619221 -191.831368 75.403827 2.240597 0.386801 -2.614102 142.171494 -41.419503 118.753002 0.000002 0.000002 -18.592892 -129.123251 42.564031 136.140779 0.000000 0.000000 -18.765797 -11.138542 41.134497 3.781573 -2.014898 -0.220894 -2.615899 -108.563890 -16.042916 -92.287207 0.000001 0.000004 -18.633883 171.594037 25.052521 -178.750845 -0.000009 -0.000002 -18.285086 -24.851978 36.008211 -227.395029
-6.204500 26.975903 7.044903 1.551898 -11.670815 5.734372 -0.204900 1.598099 7.917306 -0.407707 12.703703 -4.811946 0.000000 0.000004 3.404103 -7.617264 -12.397602 -2.188756 -0.000001 0.000001 7.928600 5.064998 10.221084 -2.722139 0.000001 0.000001 2.173898 1.083673 -2.660702 1.544632 2.833803 -1.396299 4.843306 -9.407551 8.726494 21.160525 4.363595 0.000004 -0.000003 -62.215852 -0.050367 -70.997105 0.000002 0.000005 -10.306898 180.619517 -159.426751 191.647130 -0.000002 -0.000004 -12.404895 -114.605424 181.684658 -196.591846 -2.354803 -1.897200 5.063106 14.019503 8.792248 -10.510628 -4.375791 0.000001 -0.000002 185.448829 -48.309925 249.197895 -0.000012 -0.000002 -10.005011 41.411201 51.549384 -107.669743 -0.000004 0.000004 -13.174910 143.228001 -191.498642 75.092240 2.240597 0.386801 -2.614102 142.177054 -41.367235 118.492089 0.000002 0.000002 -18.592894 -128.511799 42.464427 135.965065 -0.000000 -0.000001 -18.765799 -10.417956 41.446647 4.317296 -2.014900 -0.220896 -2.615901 -108.775332 -16.008973 -92.629632 -0.000000 0.000004 -18.633884 171.651888 25.045440 -178.796471 -0.000009 -0.000002 -18.285084 -24.675708 36.014939 -227.520964
-6.201200 26.952404 7.062309 1.724145 -11.407033 5.811111 -0.204901 1.598098 7.917308 -0.599452 12.544778 -4.745060 -0.000000 0.000003 3.404103 -7.274355 -12.472057 -2.159829 -0.000001 0.000002 7.928600 4.830440 10.020028 -2.699739 0.000000 0.000002 2.173903 1.238586 -2.540266 1.468111 2.833804 -1.396299 4.843307 -9.389103 8.820665 21.211661 4.363595 0.000007 0.000001 -61.878638 0.262236 -71.146754 0.000003 0.000001 -10.306897 181.275843 -158.381896 192.406320 0.000000 -0.000002 -12.404890 -115.579628 180.078593 -192.948992 -2.354801 -1.897202 5.063106 13.655584 8.704629 -11.115685 -4.375793 0.000003 -0.000010 185.349710 -48.358948 248.592740 -0.000012 -0.000004 -10.005005 41.916109 50.432372 -107.697057 -0.000006 0.000008 -13.174909 142.607929 -191.348883 74.980328 2.240600 0.386803 -2.614103 142.089149 -41.360361 118.120472 -0.000000 0.000001 -18.592892 -127.653230 42.046064 135.690628 0.000002 0.000002 -18.765795 -8.019330 42.262236 0.862034 -2.014898 -0.220894 -2.615900 -109.023616 -15.902820 -92.886318 0.000001 0.000005 -18.633884 171.752497 25.033828 -178.820035 -0.000008 -0.000004 -18.285084 -24.554021 36.015174 -227.608076
-6.200599 26.920303 7.080116 1.774630 -11.206676 5.838144 -0.204901 1.598100 7.917307 -0.670558 12.401266 -4.686698 0.000000 -0.000001 3.404103 -6.896672 -12.524510 -2.118850 -0.000000 0.000002 7.928601 4.557956 9.859954 -2.642321 -0.000000 0.000002 2.173906 1.321823 -2.451706 1.375366 2.833803 -1.396299 4.843306 -9.382115 8.951777 21.017860 4.363594 0.000003 0.000005 -61.526433 0.396749 -71.165216 0.000003 0.000002 -10.306891 181.608200 -157.153241 193.023004 -0.000000 -0.000003 -12.404892 -115.965998 178.846386 -189.798471 -2.354802 -1.897201 5.063102 13.271339 8.665272 -11.402384 -4.375788 0.000005 -0.000009 185.578767 -48.362893 248.258061 -0.000009 -0.000006 -10.005007 42.518112 49.641497 -107.734657 -0.000005 0.000006 -13.174905 142.186917 -190.606988 74.168771 2.240601 0.386803 -2.614102 142.101731 -41.287291 117.704295 0.000000 0.000002 -18.592890 -127.151280 41.827013 135.730790 0.000001 0.000001 -18.765800 -5.505713 43.227417 -2.963907 -2.014898 -0.220894 -2.615898 -109.115264 -15.911489 -93.060009 0.000000 0.000003 -18.633886 171.747948 25.038055 -178.831291 -0.000008 -0.000004 -18.285086 -24.467877 36.008580 -227.671543
-6.199699 26.887203 7.089607 1.927374 -10.920034 5.884704 -0.204900 1.598101 7.917311 -0.852767 12.153552 -4.624816 0.000000 -0.000001 3.404103 -6.573372 -12.526482 -2.087611 -0.000001 0.000002 7.928602 4.346822 9.667957 -2.577789 -0.000000 0.000001 2.173901 1.363381 -2.343080 1.266454 2.833803 -1.396299 4.843305 -9.161813 9.121472 20.657817 4.363598 0.000004 -0.000002 -61.223227 0.197248 -71.093274 0.000001 0.000002 -10.306894 181.397940 -155.795549 193.404866 -0.000001 -0.000002 -12.404893 -116.587436 176.711201 -185.447149 -2.354802 -1.897199 5.063106 12.953245 8.633193 -11.451619 -4.375793 0.000002 -0.000007 186.123925 -48.116391 248.339476 -0.000002 -0.000008 -10.005008 43.188089 48.675790 -107.671567 -0.000005 0.000008 -13.174908 141.429968 -189.675077 72.954541 2.240600 0.386803 -2.614099 142.049165 -41.202122 117.369738 0.000000 0.000000 -18.592890 -126.782299 41.792964 135.966595 -0.000002 0.000000 -18.765799 -8.351491 40.676556 17.531383 -2.014898 -0.220897 -2.615899 -109.361574 -15.860502 -93.329672 -0.000000 0.000005 -18.633881 171.762974 25.023199 -178.870838 -0.000008 -0.000003 -18.285084 -24.412769 36.000035 -227.712059
